# xmcd
#
# Track frame offsets:
#	150
#	14672
#	31417
#	44726
#	61577
#	76627
#	89233
#	101858
#	123476
#	137302
#	151905
#	172419
#	186360
#
# Disc length: 2793 seconds
# Revision: 0
# Processed by: cddbd v1.5.2PL0 Copyright (c) Steve Scherf et al.
# Submitted via: dBpowerAMP V12.0
#
DISCID=b20ae70d
DTITLE=Various Artist -  ...First Came Memphis Minnie 
DYEAR=2012
DGENRE=Blues
TTITLE0=Maria Muldaur With Roy Rogers  - Me And my Chauffeur Blues
TTITLE1=Bonnie Raitt With Steve Freund - Ain't Nothin' in Ramblin'
TTITLE2=Maria Muldaur and Alvin Youngblood Hart - I'm Going Back Home
TTITLE3=Maria Muldaur With Del Rey and Steve James - I'm Sailin'
TTITLE4=Rory Block - When You Love me
TTITLE5=Maria Muldaur With Del Rey, Roly Salley and Steve James - Long as I Can See You Smile
TTITLE6=Maria Muldaur With Del Rey and Steve James - Lookin' The World Over
TTITLE7=Phoebe Snow - In my Girlish Days
TTITLE8=Maria Muldaur and Alvin Youngblood Hart - She Put me Outdoors
TTITLE9=Ruthie Foster - Keep Your Big Mouth Closed
TTITLE10=Maria Muldaur With Del Rey and Steve James - Tricks Ain't Walkin'
TTITLE11=Maria Muldaur With Del Rey and Steve James - Crazy Cryin' Blues
TTITLE12=Koko Taylor - Black Rat Swing
EXTD=
EXTT0=
EXTT1=
EXTT2=
EXTT3=
EXTT4=
EXTT5=
EXTT6=
EXTT7=
EXTT8=
EXTT9=
EXTT10=
EXTT11=
EXTT12=
PLAYORDER=
